<?xml version="1.0" encoding="UTF-8"?><svg id="Layer_1" xmlns="http://www.w3.org/2000/svg" viewBox="0 0 1039.72 316.84"><defs><style>.cls-1{fill:#ff6549;}</style></defs><path class="cls-1" d="m1019.79,290.47c2.43,4.94,6.92,5.06,10.64,6.2,4.65,1.43,5.81,5.17,8.05,10.2-11.66-1.79-23.07,3.95-33.05-4.6-1.27-1.09-2.91-.14-4.55.36-12.86,3.87-25.91,3.71-38.91.71-14.72-3.39-27.57-23.36-27.56-38.2,0-10.58,5.73-10.16,12.38-10.02,8,.16,16.55-2.91,23.6-1.09,9.22,2.38,18.07,1.51,27.05,1.88,5.99.25,15.34-8.05,16.85-13.81,2.43-9.23-.7-19.59-7.46-23.4-2.02-1.14-4.98-4.22-6.71,1.1-.68,2.09-2.96,3.63-5.98,3.66-3.85.04-6.54.3-4.99-5.12.88-3.08-.72-6.97.43-9.85.97-2.45-5.79-5.83.76-6.69,4.61-.6,12.41,5.08,11.38,8.05-1.35,3.88.5,3.39,2.99,3.58,19.67,1.49,32.9,16.19,33.22,36.12.22,13.28-1.55,25.6-9.76,36.85-2.55,3.5-5.12,3.29-8.38,4.06Zm-63.12-15.83c1.63,1.57,3.2,3.2,4.79,4.8.74.63,1.49,1.26,2.23,1.9.84-1.42.63-2.48-1.06-3.02-.62-1.62-1.79-2.69-3.41-3.29-2.22-2.24-4.45-4.46-6.68-6.68-.09-1.03-.65-1.59-1.69-1.65-.56-.56-1.12-1.11-1.67-1.67-.95-2.57-4-2.03-4.29-1.08-.51,1.71,2.45.84,3.3,2.11,2.83,2.86,5.66,5.72,8.47,8.59Zm11.58,22.12c9.57,4.93,17.88,2.94,25.92,3.23,2.18.08,5.37,1.6,6.55-1.35,1.08-2.71-1.11-4.83-4.23-8.12,3.59,7.23-.56,6.25-3.75,6.24-7.47,0-14.94,0-24.49,0Zm9.62-11.4c0,.89,0,1.77,0,2.66,6.01.35,12.06.48,18.03,1.2,1.81.22,1.6-.53,1.72-1.41.22-1.61-.4-2.49-2.22-2.47-5.84.06-11.69.02-17.53.02Z"/><path class="cls-1" d="m154.65,102.37c-2.67,5.45-10.07,8.8-5.82,16.5,1.19,2.16,1.89,2.67,3.96,2.73,3.66.1,7.18-2.95,11.19,1.23,1.84,1.92,3.69-3.25,4.72-5.37,2.06-4.25,4.64-6.35,9.56-5.95,5.17.42,3.93,4.78,5.14,8.96,1.96-8.26.14-13.4-7.08-15.4-2.4-.67-2.3-2.03-2.08-3.61.27-1.93,1.97-1.49,3.27-1.53,7.03-.21,13.99,8.58,12.28,15.48-2.49,10.09.53,14.36,10.32,14.56,9.12.19,12.02,7.81,8.19,17.28-3.65,9.04-5.3,18.64,1.67,27.66,2.92,3.77,4.26,8.56,4.39,13.63.15,5.7-.48,11.36,1.47,17.12,1.76,5.19-.91,7.91-7.06,7.86-28.71-.25-57.42-.22-86.13-.02-5.56.04-8.4-2.21-6.87-7.28,1.9-6.27,1.09-12.52,1.6-18.76.22-2.63.29-5.91,1.83-7.69,6.43-7.45,6.42-16.14,7.03-25.19.21-3.18-.05-4.73-1.9-6.79-3.85-4.3-2.62-9.62-1.27-14.07,3.76-10.35,21.22,5.07,19.51-12.86-.48-4.42-1.3-9.16,1.2-13.7,2.42-4.39,5.14-6.77,10.88-4.77Zm54.65,105.66c3.04-.97,1.78-2.12.14-3.29-.05-2.71.66-5.72-.29-8.06-2.42-5.97,1.34-13.47-4.71-18.43-.35-.93-.7-1.86-1.04-2.79-.15.96-.31,1.91-.46,2.87,0,9.45,0,18.89,0,28.34-.3,1.2.15,1.65,1.35,1.36,1.67,0,3.34,0,5.01,0Zm-57.17-56.41c.26-1.18-.17-1.66-1.38-1.36-5.02,0-10.03,0-15.05,0-2.85-.8-3.88.2-3.04,3.05,0,2.77,0,5.53-.01,8.3.07.44.15.87.22,1.31.44-.4.88-.81,1.31-1.21,8.59-.82,20.06,2.99,17.95-10.08Zm-2.75,55.05c-.3,1.2.15,1.65,1.35,1.36h31.81c1.2.31,1.64-.17,1.39-1.35,1.13-3.99-.41-5.22-4.46-5.08-9.57.32-19.15.26-28.73.35-1.18-.25-1.66.18-1.36,1.38v3.35Zm26.27-88.74c-2.05,3.19-3.33,6.37-5.61,8.45-3.38,3.08-1.89,6.27-.78,9.15.68,1.75,2.61,2.8.41,4.76-1.99,1.78-4.01,2.01-5.84.15-1.36-1.39-4.05-2.22-2.49-5.31,1-1.98,3.28-3.71,2.23-6.57-3.69-.26-7.3-.31-10.84-.82-4.8-.69-5.1-.5-4.1,4.4,2.94,14.45,5.62,16.2,20.12,16.29,8.2.05,12.02-5.3,14.72-10.96,2.08-4.35,2.35-10.26-3.99-13.03-2.71-1.19-1.04-4.68-3.82-6.51Zm15.07,32.07c-4.88.42-10.87-2.31-9.93,5.64.65,5.19,2.93,6.46,7.25,4.66,2.37-.99,3.49,1.01,5.21,1.44,7.66,1.9,8.54,1.17,7.7-6.79-.85-8.03-7.08-3.7-10.22-4.95Zm-7.25,24.38c-23.13,13.98-33.15-2.78-34.35,5.82-.52,3.23.17,5.05,4.22,4.88,7.46-.33,15.01-.71,22.4.07,8.46.88,10.08-2.6,7.73-10.76Zm-52.15,18.46c0-3.6.18-7.21-.07-10.79-.13-1.88,1.41-4.98-1.79-5.32-2.42-.26-2.88,2.37-3.93,4.38-3.63,6.95.62,14.73-2.9,21.69-.99,1.96-1.6,5.63,3.24,5.57,3.46-.04,5.98-.16,5.53-4.73-.35-3.56-.07-7.19-.07-10.79Zm34.26-27.97c4.28.64,8.41-.04,9.93-4.73.45-1.4-.95-4.92-3.01-4.87-4.96.14-10.33-2.2-14.75,1.39-.52.42-2.33,3.39-.47,5.69,2.27,2.81,5.08,2.85,8.29,2.52Zm-21.64,11.59s.04,0,.06,0c0-1.38.16-2.79-.04-4.14-.33-2.3,1.65-5.92-3.38-5.68-4.15.2-5.04,2.55-4.92,6.04.1,3.04.12,6.09,0,9.12-.11,2.64,1.23,3.43,3.56,3.14,1.72-.21,4.23,1.03,4.66-1.86.32-2.16.06-4.41.06-6.62Zm1.41-31.56c.49-10.23-6.54-8.04-12.15-8.33-3.17-.17-4.3.86-4.28,4.15.02,3.15.84,4.44,4.16,4.24,4.09-.24,8.2-.06,12.26-.06Zm49.4.17c3.98-.69,9.44,1.84,9.51-5.07.06-6.15-4.79-2.76-7.36-3.27-4.61-.9-9.44-.22-9.1,5.83.27,4.77,4.96,1.06,6.96,2.51Zm-5.5,40.87c1.54-2.88,6.7,1.35,6.59-3.27-.26-4.14,2.45-16.7-4.61-15.96-2.53.25-1.93,2.21-1.95,3.66-.08,5.19-.03,10.38-.03,15.57Zm-10.56-18.02c-9.46,6.75-18.4,2.72-27.35-1.12,9.45,10.36,19.86,10.85,27.35,1.12Zm-42.83,25.47c7.15,1.28,14.33,2.56,21.44-.15-7.13-2.21-14.29-1.55-21.44.15Zm40.17.14c6.59,1.13,13.22,2.49,19.76-.22-6.56-2.29-13.16-1.86-19.76.22Zm-32.05,11.73c.53-2.91-.96-3.88-3.76-3.59-2.03.21-4.58-.84-4.6,2.92-.02,2.92.97,4.06,3.85,3.72,2.03-.24,4.83.84,4.51-3.05Z"/><path class="cls-1" d="m927.34,191.75c2.81,3,5.57,6.05,8.44,9,1.69,1.73,3.07,3.98.69,5.42-1.52.92-4.1,1.62-6.12-1.59-2.58-4.11-6.75-7.2-10.09-10.86-4.31-4.72-8.27-9.48-15.89-5.54-2.8,1.45-5.89-.29-7.83-3.07-3.21-4.58-8.01-4.83-11.28-1.55-5.12,5.15-9.29,2.32-12.49-.9-4.25-4.26-7.3-4.93-12.53-1.44-2.18,1.45-6.64,5.05-10.14.44.34-1.2-.35-1.58-1.36-1.73,0,0,.03.02.03.02-.21-.39-.43-.77-.64-1.16-7.5,7.34-14.92,14.79-22.71,21.81-2.47,2.21-4.63,8.72-8.57,4.83-4.75-4.69,2.65-6.64,4.89-9.09,8.43-9.22,17.16-18.24,26.51-26.52,5.82-5.15,2.54-7.94-1.44-10.61-5.24-3.52-18.24,1.44-20.65,7.3-.59,1.44.09,2.03.88,2.58,1.99,1.39,4.39,1.43,6.24.2,3.26-2,6.22-8.92,10.63-4.96,2.66,2.42-.44,3.18-1.43,4.28-8.56,9.52-13.93,10.48-24.88,4.31-1.92-1.08-3.61-2.72-.97-5.15,4.47-4.13,8.39-8.92,13.2-12.57,7.16-5.44,15.59-5.05,22.85,1.59,4.11,3.76,6,2.93,9.13-.59,6.13-6.9,13.92-8.31,22.07-4.4,3.24,1.55,4.77,1.1,6.93-1.17,4.4-4.63,9.01-9.07,13.53-13.58,9.6-9.56,17.47-10.1,28-1.92,4.78,4.7,8.1,11.05,15.08,13.26,2.96,3.18,5.72,6.58,8.94,9.47,2.83,2.55,3.65,5.16,1.98,8.99-6.05-2.53-8.77-8.84-14.09-11.94-1.66-2.32-3.3-3.02-4.88.08-5.64,2.96-10.83,2.97-15.17-2.34-3.97-4.86-7.71-6.25-13.03-1.11-2.92,2.82-7.36,4.56-12.03,2.9-4.62-1.65-6.86,1.14-6.25,4.86.36,2.19-.23,2.85-1.42,3.65-1.54,1.04-2.44-.46-3.5-1.25-10.46-7.83-15.96-7.43-25.22,1.81-2.56,2.55-5.29,4.96-7.6,7.71-.91,1.08-4.29,1.66-1.7,4.28,1.63,1.65,3.76,1.9,5.13.33,6.56-7.56,11.83-4.47,16.93,1.65,2.69,3.23,5.16,3.27,8.24.09,4.28-4.42,8.84-3.91,12.66.8,2.82,3.46,6.18,3.95,12.56,2.15-4.6-3.79-8.18-6.79-11.81-9.72-1.76-1.42-2.46-3.46-1.18-5.02,1.39-1.68,3.59-1.16,5.02.54,6.57,7.84,15.39,13.52,21.17,22.1,1.07,2.11,2.61,3.5,5.15,3.36Zm8.45-45.21l.04.03c-1.73-2.76-3.95-5.02-6.74-6.72-.54-.54-1.07-1.07-1.61-1.61-.19-.97-.56-1.7-1.76-1.32-3.34-.6-6.38-3.08-10.06-1.62-1.22-.47-1.57.32-1.82,1.25-.52.03-1.02.15-1.5.36-1.71-.24-2.43,1.19-3.07,2.2-2.16,3.44-9.76,6.51-6.51,9.38,3.88,3.42,6.44-4.05,9.59-6.76,5.06-1.56,8.92,1.63,13.18,3.28,1.27,2.13,2.86,3.94,5.17,5.01,2.7,2.62,4.51,2.41,5.11-1.61.42-.42.85-.84,1.27-1.26-.43-.21-.85-.42-1.28-.63Z"/><path class="cls-1" d="m701.42,170.29c-32.33-.21-64.68.04-97-.41-1.99-.42-2.39-3.55.07-3.75,30.38-.41,60.78.03,91.16-.22,2.75-.01,5.66,1.17,8.15-2.22,4.11-5.59,8.86-5.17,13.85-.21,4.44,4.42,1.44,8.1-1.3,10.46-4.79,4.13-9.99,4.13-13.53-2.31.25-1.18-.19-1.66-1.39-1.36Z"/><path class="cls-1" d="m266.55,171.64c-3.22,3.13-6.03,7.53-11.41,3.21-3.93-3.15-5.34-6.41-2.48-11.34,3.16-5.43,7.55-4.95,10.78-1.74,4.14,4.1,8.58,4.26,13.65,4.24,27.28.02,54.59-.24,81.86.08,1.41.12,2.84.63,2.55,2.46-.21,1.31-1.43,1.43-2.55,1.43-30.35.08-60.69.19-91.04.29-1.2-.3-1.66.16-1.36,1.36Z"/><g><path class="cls-1" d="m783.41,302.07h-21.72c-1.53-.23-4.2-.87-4.25.37-.08,2.08,2.28,3.4,4.14,4.52.65.86,1.34,1.69,1.94,2.58,1.18,1.75,5.14,2.79,2.04,5.74-3.37,3.2-3.63-1.65-5.28-2.62-3.36-1.98-4.95-6.85-10.07-6.01-.38-3.25-2.28-5.22-5.31-6.23-1.64-.09-3.27-.17-4.91-.28-2.64-.18-3.85,6.11-7.24,1.78-2.28-2.9,3.93-3.58,2.22-6.65,11.74-13.08,24.34-52.51,19.69-61.81-1.33.43-1.35,1.56-1.34,2.61.14,10.79-3.35,20.58-7.22,30.53-3.73,9.6-9.46,17.94-14.29,26.83-7.09,7.57-8.67-2.7-13.32-3.82,22.1-5.13,20.52-25.99,27.95-40.7.5-.99.71-2.85-.87-3.62-1.15-.56-2.07.26-2.84,1.14-.36.42-.77.81-1.23,1.12-4.13,2.79-6.08,10.52-13.28,6.37-3.2-1.84-2.27-13.88.99-19.22.39-.64.39-1.52.56-2.23-3.62-2.59-11.09,2.52-11.42-5.05-.32-7.09,5.98-11.09,11.53-12.01,8.42-1.39,5.47-3.73,2.15-7.51-1.47-1.68-4.91-2.66-3.3-5.86,1.38-2.74,4.31-1.92,6.72-2.02,6.39-.25,12.8-.58,17.34,5.3,1.69,2.19,3.07.98,4.82-.31,5.18-3.82,11.09-5.29,17.57-5.11,3.18.09,6.7.62,7.69,3.15.77,1.97-1.43,4.93-3.51,6.85-1.16,1.08-2.69,2.05-2.67,4.4,5.58.93,9.85,4,13.44,8.22,1.58,1.86,4.17,3.25,3.2,6.21-1.12,3.4-4.15,3.02-6.93,2.96-1.36-.03-2.72,0-4.99,0,3.63,8.64,5.96,16.79-.6,25.4-4.97-5.12-9.8-10.07-14.6-15.05-3.33-3.46-5.93-1.96-6.07,1.87-.56,16.36-8.01,30.62-14.18,45.04-3.21,7.52.49,7.26,4.81,7.29,26.18.27,52.38-.83,78.55.2,2.19.11,6.26-2.02,5.92,3-.29,4.26-3.83,1.65-5.83,2.33-.76.26-1.64.2-2.47.28-14.52,0-29.04,0-43.56,0Zm-51.63-55.18c5.73-5.56,11.52-11.17,17.2-16.68-11.42-.43-16.53,4.55-17.2,16.68Zm28-15.98c5.7,4.96,10.36,9.06,15.09,13.09,1.33,1.13,2.51,3.8,4.55,2.17,1.4-1.12,1.21-3.79.21-5.41-3.93-6.34-8.13-12.51-19.85-9.85Zm14.83-25.39c-10.26-.87-16.06,3.55-17.04,12.94,7.2-2.39,12.7-6.7,17.04-12.94Zm-39.26.35c4.27,3.79,7.7,6.91,11.21,9.92,1.68,1.44,3.44,1.28,5.24-.07,2.53-1.89.12-3.86-.52-4.74-3.39-4.71-8.02-7.08-15.94-5.11Zm49.24,19.15c-3.27-4.3-15.04-6.99-19.06-4.5-2.62,1.5-2.7,4.24.87,4.44,5.98.1,11.96.05,18.19.05Zm-36.51-2.58c-7.95-4.38-17.55-3.26-22.45,2.69,7.57-.99,15.3,1.93,22.45-2.69Z"/><path class="cls-1" d="m800.06,295.43c-8.38-4.48-15.91-9.77-16.52-20.37-.63-11.08,7.08-19.33,19.77-21.62,6.29-1.13,18.08,6.68,20.25,13.43,3.29,10.21-1.27,20.25-10.75,25.25-1.89,1-5.4.09-5.79,3.61-2.32-.1-4.65-.2-6.97-.29Zm4.24-35.37c-10.67.02-14.09,3.21-14.14,13.19-.05,9.83,4.74,15.02,13.95,15.11,19.94-.32,22.78-28.76.19-28.3Z"/><path class="cls-1" d="m791.7,309.79c-2.34-2.21-8.52,2.48-8.2-4.53,13.85-1.58,27.7-1.49,41.55-.09.24,6.63-5.57,2.76-8.08,4.62-8.43-1-16.85-1-25.28,0Z"/><path class="cls-1" d="m816.82,313.65c.11,1.73,0,3.19-2.38,3.17-5.97-.05-11.95-.08-17.92.01-4.2.07-2.95-2.75-2.85-5,7.7.84,15.7-2.18,23.15,1.82Z"/></g><g><path class="cls-1" d="m577.41,153.35c-1.62,7.87-3.32,15.72-4.83,23.61-.48,2.52-.16,5.49,2.77,6.06,2.79.55,4.19-2.3,5.42-4.35.94-1.57.91-3.74,1.92-5.22,1.23-1.78-3.58-4.25.43-4.9,2.92-.48,5.42,1.19,6.77,4.39,2.08,4.9-.98,12.81-6.39,15.56-7.09,3.6-14.26,1.74-17.79-3.87-4.05-6.43-1.74-12.89-.75-19.27.29-1.85,1.61-4.34-.03-4.98-6.53-2.62-3.23,19.36-18.73,23.59-2.22.69-5.11,1.87-6.15.59-4.34-5.28-8.58-.86-12.62-1.15-8.05-.58-16.49,2.85-24.33-1.33-1.93-1.03-4.05-.61-6.22.61-7.08,3.96-12.71.66-13.04-7.46-.2-4.87-.22-9.73,2.08-14.76-8.26,1.44-7.49,7.61-9.01,12.85-1.14,3.94,1.14,11.58-7.69,10-.54-.1-1.49.16-1.61-.07-5.6-10.75-10.44-1.54-15.23.76-4.08,1.96-6.85.89-9.39-2.21-4.76-5.82-4.04-23.5,5.8-27.92,8.34-3.74,14.31-.59,14.98,8.68.17,2.4-.76,4.93.99,7.52,6.14-2.18,5.05-8.16,5.37-12.24.45-6.6,4.41-6.68,9.12-6.07,4.67,2.54,10.72-2.51,14.88,2.69,4.24,5.31-1.61,10.47-.27,15.76.37,1.49-.83,3.74,1.06,4.37,7.24,2.5,3.34-24.48,21.42-22.88,3.12.25,4.46-.59,4.43-4.04-.02-2.9,1.11-5.79,1.55-8.71.76-4.97,4.57-4.23,7.72-3.86,4.13.49,2.3,3.73,1.84,5.8-1.91,8.66-4.29,17.23-6.01,25.93-.38,1.9-1.97,5.41,1.55,6.31,3.94,1.01,4.58-3.02,4.72-5.12.28-4.34,2.38-7.87,4.44-11.15,2.11-3.36,5.59-6.08,10.35-4.75,4.37,1.22,6.3,4.03,5.57,8.6-.17,1.05.03,2.21,2.26,2.58,1.96-3.7.02-10.51,6.07-11.5,4.87-.79,9.99-.09,15-.05.52.52,1.05,1.05,1.57,1.57Zm-128.76,17.36c-.18,2.71.15,5.5,3.25,5.7,2.54.16,3.4-2.15,3.53-4.6.07-1.29.93-2.56.92-3.84,0-2.55,4.13-5.79-.1-7.45-3.47-1.36-4.61,2.49-6.09,5.01-1,1.69-1.85,3.28-1.52,5.18Zm68.78-5.57c-.65-1.91,1.02-5.83-2.28-4.94-4.71,1.28-5.74,6.16-6.19,10.6-.16,1.6-.9,4.57,2.2,4.08,5.52-.87,5.67-5.59,6.27-9.74Zm34.91,6.85c.19-2.31.01-3.89-1.88-3.59-3.46.55-6.89,1.65-8.75,4.84-.3.51.59,4.17,3.43,3.34,3.03-.88,6.35-1.63,7.2-4.58Z"/><path class="cls-1" d="m400.68,174.89c-2.89,4.48-5.22,7.17-6.5,10.3-2.39,5.87-7.27,3.14-10.62,2.78-3.77-.4-2.17-4.73-1.5-6.84,3.96-12.39,5.01-25.35,7.87-37.95.36-1.6,1.65-4.72-2.29-4.87-5.01-.19-6.87,3.48-9.27,6.88-1.56,2.21,3.46,5.02-.83,6.36-3.23,1.01-5.58-1.24-6.8-3.61-2.01-3.9.16-7.9,2.72-10.28,5.88-5.49,14.01-5.13,21.27-5.18,5.46-.04,6.26,5.17,5.09,9.94-1.39,5.69-4.05,11.2-2.34,18.31,6.65-4.56,9.58-23.61,17.84-20.53,3.25,1.3,1.81,4.87,1.15,7.21-2.34,8.34-4.86,16.64-4.58,25.41.1,3.05-1.6,7.47,2.82,8.44,3.22.71,5.36-2.95,6.69-5.34,6.02-10.9,9.67-22.58,10.67-35.09.22-2.73-2.93-7.75,3.94-7.62,6.3.12,6.62,4.56,5.84,8.5-2.66,13.38-5.93,26.54-13.8,38.19-4.07,6.02-8.26,11.12-16.21,10.01-7.42-1.04-9.03-7.51-11.16-15.02Z"/><path class="cls-1" d="m578.98,149.94c.86-8.51-2.44-16.46,9.48-16.84,6.27-.23,10.41,1.61,10.73,7.98.33,6.42-3.72,9.87-9.93,10.45-3.28.31-6.62-.06-9.94-.13.08-.53-.03-1.02-.34-1.47Z"/><path class="cls-1" d="m546.02,209.82c-5.78,1.53-8.04-2.7-8.21-6.56-.12-2.75,1.58-6.89,6.61-6.69,4.53.18,8.24,1.89,7.64,6.35-.33,2.47.7,9-6.04,6.9Z"/><path class="cls-1" d="m512.19,205.14c1.29,4.93-1.95,4.94-5.6,4.93-3.59-.01-7.72-1.67-6.5-4.67,1.19-2.92-1.33-9.49,6.38-8.94,6.52.47,5.93,4.27,5.71,8.68Z"/><path class="cls-1" d="m467.42,191.66c2.96,0,5.94-.2,8.88.07,1.95.18,4.77-1.44,5.71,1.47,1,3.11-2.05,2.63-3.6,3.79-2.89,2.17-.83,6.1-1.23,9.25-.24,1.95.1,3.98-2.92,3.7-2.5-.23-2.3-2.1-2.09-3.61.72-5.3-.26-9.88-5.67-12.88l.92-1.79Z"/><path class="cls-1" d="m525.28,210.05c-1.47.06-8.36-10.08-7.13-12.57.23-.46,1.47-.89,1.98-.68,3.45,1.38,6.82,3.37,10.26-.06.15-.15,1.13.17,1.37.52,2.18,3.16-1.33,5.42-1.58,8.3-.11,1.3-.46,4.6-4.9,4.5Z"/><path class="cls-1" d="m564.56,200.54c-1.81,2.98,2.27,8.94-2.69,8.92-5.36-.03-2.43-6.09-2.49-9.29-.06-3.31-2.34-9.72,2.05-9.62,5.86.13,1.05,6.71,3.14,9.99Z"/><path class="cls-1" d="m496.79,197.21c-3.92,3.57-6.83,6.23-6.32,10.62.14,1.21-.49,2.1-1.85,1.97-.41-.04-1.1-.53-1.11-.82-.08-3.79-.98-7.92.25-11.27.9-2.45,4.79-.99,9.03-.5Z"/></g><g><path class="cls-1" d="m1017.24,17.32c-5.55-.91-11.55-.1-14.56-6.62-.65-1.41-1.86-2.06-.91-4.22,2.43-5.5,8.2-4.22,12.21-6.23,2.3-1.15,6.16,1.86,7.95,4.67,2.1,3.29.61,5.91-2.02,8.68-3.49,3.67-.27,3.95,2.82,4.65,13.52,3.1,18.07,8.24,16.78,18.47-.34,2.66-.83,5.6-3.79,6.44-8.14,2.32-8.32,8.26-8.05,15.17.43,11.2.12,11.21,11.02,13.05-36.32,1.74-72.67,1.33-109.01,1.35-.23-.71-.46-1.42-.69-2.13,5.33-3.01,10.35-7.13,16.08-8.7,4.59-1.25,6.01-2.79,5.79-7.04-.17-3.32-.2-6.67.01-9.99.2-3.09-.44-4.4-3.99-5.47-7.94-2.4-10.45-8.51-9.57-16.7.77-7.19,6.84-8.04,11.2-11.36,10.36-7.88,16.86,1.15,24.54,4.84,3.37,1.62,3.01,5.44,3.06,9.74,27.9-21.44,21.37,7.9,41.13-8.59Zm-52.07,50.79c4.44-1.02,6.82-7.29,12.13-6.5,7.48,1.12,9.17-1.74,8.99-8.86.19-11.09-8.28-5.15-10.99-12.49-1.19-3.95-3.81-4.47-7.54-3.08-3.14,1.17-5.7,1.7-5.36,6.29.6,8.14-.56,16.42,2.78,24.64Zm-11.41-33.03c5.62-.05,9.9.08,13.2-2.49,1.33-1.04,5.33-1.79,3.72-3.14-4.65-3.91-1.48-11.2-8.39-14.59-7.47-3.66-11.79.37-17.01,3.21-5.51,2.99-2.98,8.97-2.18,12.26,1.21,5.01,8.36,3.14,10.67,4.75Zm80.72-.77c.12-5.64-6.04-11.61-12.96-10.85-5.14.57-12.45.54-13.53,7.53-1.22,7.89,3.61,12.05,12.1,12.21,9.03.16,14.27-3.07,14.39-8.89Zm-30.04-.34c-.16-6.9-4.21-10.62-11.67-10.78-6.24-.13-13.42,4.62-13.45,8.91-.05,7.38,4.22,11.75,12.06,10.85,5.53-.63,13.01,0,13.05-8.98Zm11.63,21.81c.04-8-3.96-13.09-10.15-12.3-5.41.68-9.16,3.18-8.42,10.16.8,7.49,4.07,10.2,15.9,9.42,5.71-.38.98-5.45,2.67-7.28Zm-58.98-17.3c-2.74,9.35.6,16.98-2.64,24.06-.82,1.8.9,3.32,2.47,3.69,2.69.64,2.62-1.9,2.2-3.16-2.4-7.3-1.17-14.97-2.04-24.59Z"/><path class="cls-1" d="m965.9,82.95c3.3.39,5.86-2.46,10.33-.94-2.29-2.79-6.48-1.41-5.32-5.22,1.14-3.73,4.17-2.09,6.05-1.39,14.16,4.2,14.37-6.97,32.89,5.45,2.08,1.35,4.26.92,6.13.53,3.2-.66-.47-2.23.02-3.59.44-1.21.4-3.56,1.91-2.69,6.25,3.58,12.17-.15,18.22-.16.91,0,1.82,1,3.38,1.92-1.93,2.11-6.25.84-6.22,3.76.04,3.53,4.92,1.38,6.16,4.08-1.17.62-2.27,1.5-3.52,1.81-12.05,3.03-24.41-.56-36.51,1.57-.46-.67-1.45-1.49-1.3-1.98,2.25-7.62-3.23-6.25-7.27-6.11-5.49.2-6.23,3.67-5.09,8.16-7.2-.7-14.42-2.72-21.56.35-2.21-.14-4.41-.28-6.62-.41-8.71-3.76-18.08,2.64-26.75-1.72.27-1.03-3.27-2.51.25-3.06,11.55-.09,23.24-.14,34.84-.36Z"/><path class="cls-1" d="m939.08,104.61c33.45.26,66.93-.61,100.36.52.37,6.05-4.31,3.86-6.99,3.87-31.07.14-62.15.17-93.22-.04-2.76-.02-8.01,2.36-7.98-2.43.02-3.53,5.24-.62,7.83-1.93Z"/><path class="cls-1" d="m1014.44,93.59c-5.17,3.14-10.9,4.19-15.92.82-4.05-2.72-6.77.65-10.16.59-8.02-.15-16.05-1.68-24.08-.26,0-.99,0-1.98.01-2.97,5.87-1.86,11.65-3.29,17.77-.46,1.49.69,4.29,1.46,5.64-1.25l11.65-.43c2.16,2.13,5.12,2.75,7.58,1.83,10.76-4.04,21.87,2.53,32.54-1.38,0,1.01,0,2.02,0,3.04-4.45.7-8.9,1.39-13.35,2.09-3.89-.53-7.78-1.07-11.68-1.6Z"/><path class="cls-1" d="m964.19,97.98c6.06.96,12.38-.78,20.46,1.64-15.84,5.31-29.86,1.77-43.72,1.91,6.62-10.29-13.92.42-10.21-11.85,8.28,3.82,16.65-.23,24.97.27,0,1.08,0,2.15,0,3.23-3.69.04-7,1.08-9.76,4.75,6.09,0,12.18-.03,18.26.05Z"/><path class="cls-1" d="m940.92,81.51c.16-8.38,7.34-5.9,11.41-6.31,3.92-.39,8.71.86,11.72,4.64-7.7.64-15.56-.91-23.13,1.67Z"/><path class="cls-1" d="m1014.36,98.39c.11.47.12.94.01,1.41-8.28,3.57-16.56,1.98-24.86.23,8.2-2.51,16.55-1.57,24.85-1.64Z"/></g><g><path class="cls-1" d="m48.56,111.79c2.04,8.06,9.54,7.75,15.39,9.65,3.25,1.06,3.62-1.55,2.77-4-1.5-4.33-4.8-6.96-8.73-9.13-1.94-1.07-3.73-3.34-2.45-5.52,1.46-2.49,3.48-.72,5.59.17,9.07,3.87,12.68,10.97,12.56,20.26-.05,4.25-.21,7.6,5.84,6.83,4.24-.54,9.98-1.51,11.73,3.47,1.92,5.46,2.57,11.78-2.42,16.74-.44.07-.88.15-1.31.22.41.43.82.85,1.23,1.28.54,10.44-.8,20.64,6.29,30.51,5.23,7.29,1.34,18.1,3.79,27.1.92,3.35-1.28,4.07-4.3,4.06-30.05-.07-60.11-.08-90.16,0-3.14,0-4.51-.84-4.36-4.19.56-12.41-.15-24.37,6.82-36.38,3.62-6.24,6.01-17.15-.2-25.76-2.8-3.87-2.03-8.28-.43-12.45,2.47-6.42,9.7-4.4,15.07-4.72,3.01.06,4.44.04,2.87-4.06-3.44-8.94,5.47-20.43,13.05-23.72,4.63-2.01,5.28.6,4.62,4.37-5.96,1.27-8.42,6.21-11.16,10.76-.8,1.33-1.27,3.38.72,4.16,1.64.65,1.97-.97,2.53-2.29,2.76-6.53,7.74-8.94,14.66-7.38Zm-14.86,64.81c-1-1.55-1.98-2.77-2.82.1-.11,8.84-.05,17.69-.42,26.52-.16,4.01,1.16,5.26,5.15,5.15,9.43-.25,18.87-.15,28.31-.04,2.95.03,4.64-.48,4.55-4.04-.21-8.57-.13-17.15-.03-25.73.04-2.96-1.27-4.52-3.87-3.08-10.17,5.65-20.39,6.06-30.87,1.11Zm33.34-44.85c.56-3.26-.13-5.74-5.06-5.21-5.2.56-9.65-2.18-12.98-5.55-4.09-4.13-6.67-6.18-9.88.66-1.02,2.17-3.07,4.8-6.17,4.93-2.25.09-2.52,1.17-2.77,3.05-1.19,8.88,7.47,19.46,16.79,20.3,10.27.93,20.09-7.66,20.07-18.19Zm-33.04,37.51c5.77,4.1,10.05,5.84,14.78,5.7,4.94-.14,9.99-1.38,13.3-4.76,2.27-2.32-4.65-2.58-3.41-6.09.43-7.96-4.16-9.36-11.09-9.4-6.65-.2-7.89,2.14-7.45,7.95.27,3.62-3.59,4.79-6.12,6.59Zm49.7-10c.28-2.61-.05-5.22-1.6-7.67-1.34-2.12-4.36-2.11-4.33-.75.17,8-5.52,5.4-9.58,5.82-1.97.2-4.82-.96-4.44,2.85.27,2.69,1.92,3.73,4.49,3.78,3.3.07,7.07-.74,9.79.58,5.95,2.89,5.95-.26,5.68-4.62Zm-68.62,7.07c5.5-4.42,10.61-2.61,15.47-2.98,4.19-.31,4.74-3.8,4.46-6.44-.35-3.25-2.93-1.76-5.01-1.03-5.71,2.01-10.71,2.25-10.62-7.05-5.59,5.17-3.88,10.44-4.31,17.49Zm-3.01,15.51c-.92-.08-1.84-.16-2.77-.25-4.53,7.62-1.33,16.77-3.92,24.82-.7,2.19,2.15,1.72,3.66,1.87,2.04.2,3.05-.7,3.04-2.8-.03-7.88-.01-15.76-.01-23.64Zm74.79-2.86c0,9.47.16,17.15-.07,24.82-.11,3.62,1.12,5.06,4.7,4.48,1.09-.18,2.61-.36,2.11-1.71-3.07-8.37-.77-18.04-6.74-27.59Zm-7.2-42.43c-1.96,1.65-7.02-2.79-7.31,2.75-.24,4.49,3.2,6.52,7.68,5.56,2.61-.56,6.85,2.52,7.18-3.62.34-6.4-3.99-4.24-7.55-4.69Zm-62.05,8.32c4.64.59,8.73-.86,8.97-5.82.22-4.59-4.34-2.47-6.34-2.2-2.95.38-8.22-3.48-8.49,3.86-.18,5.04,2.84,4.27,5.86,4.16Zm-1.1,32.65c1.81,2.3-2.57,7.16,3.46,7.43,6.17.28,3.47-4.68,3.3-7.01-.2-2.65,3.33-7.9-3.25-7.83-6,.07-1.76,5.06-3.51,7.41Zm56.9.08c1.77,2.33-2.51,7.24,3.59,7.36,6.12.12,3.28-4.77,3.19-7.14-.09-2.66,3.15-8-3.45-7.73-5.96.25-1.44,5.21-3.33,7.51Z"/><path class="cls-1" d="m48.04,126.58c6.59,1.47,3.15,7.92,5.21,11.67,1.22,2.23-3.8,1.6-5.93,1.54-2.23-.06-4.34-1.41-3.21-4.32,1.14-2.96,2.56-5.82,3.94-8.9Z"/></g><g><path class="cls-1" d="m774.92,38.25c7.19,11.06,9.57,23.11,8.65,36.24-.82,11.7-6.76,20.2-14.98,27.61-2.71,2.45-3.91,1.12-3.46-2.16,8.15-12.74,6.91-27.19-3.3-38.55-5.94-10.47-15.57-17.18-23.85-25.27-.72.69-1.44,1.39-2.15,2.08,8.24,8.12,16.48,16.25,24.72,24.37,7.77,11.94,8.32,24.4,2.7,37.31-7.73,10.72-9.95,11.05-21.63,3.4-4.77-3.13-9.75-5.27-13-11.06-1.81-3.22-2.95-5.53-2.04-8.63,3.2-10.89-.45-20.39-4.91-30.14-5.16-11.25-5.52-23.69-2.34-35.18,4.4-15.89,23.07-21.83,38.89-13.4,4.09,7.52,6.49,15.64,6.66,24.1.14,7.16,3.34,9.79,10.04,9.28Zm-31.65-21.9c-.28,4.64,1.46,8.33,6.02,8.26,4.62-.07,8.62-3.4,8.67-8.05.04-4.18-2.76-7.12-8.16-6.88-5.02.22-7.25,1.88-6.53,6.67Z"/><path class="cls-1" d="m760.12,4.79c15.77-5.6,30.96-2.8,45.87,3.3,3.96,1.62,8.28,2.93,11.57,5.49,3.18,2.47,8.57,4.46,6.25,10.5,4.78,1.15,8.07,3.74,10.2,8.42,1.37,3.01,2.56,6.92.42,8.24-2.98,1.85-7.2,4.03-11.15.77-2.5-2.06-5.98-3.56-4.04-7.82,1.9-4.18,1.64-7.03-3.97-6.86-14.3-4.84-29.09-5.75-44.03-5.33-2.71.08-3.94-.19-4.76-3.62-1.1-4.6-1.58-10.04-6.34-13.08Z"/><path class="cls-1" d="m815.17,31.67c.57,3.79-.44,5.28-4.83,4.74-11.13-1.38-22.34-.96-33.52-.2-1.05-.32-2.09-.83-3.16-.94-4.84-.48-5.65-3.57-5.28-7.63.45-4.84,4.11-2.5,6.33-2.65,4.99-.33,10.1-.71,15.02-.02,8.7,1.22,18.09.25,25.43,6.7Z"/><path class="cls-1" d="m754.94,16.47c-.66,2.19-2.42,4.7-5.14,4.75-2.32.05-4.71-2.48-4.57-4.84.14-2.22,2.31-4.87,4.81-4.56,1.77.22,5.05.58,4.9,4.64Z"/></g></svg>